<svg id="Icons" height="512" viewBox="0 0 60 60" width="512" xmlns="http://www.w3.org/2000/svg"><path d="m38 56v-16a2 2 0 0 0 -2-2h-2a2 2 0 0 0 -2 2v16z" fill="#54d174"/><path d="m28 56v-12a2 2 0 0 0 -2-2h-2a2 2 0 0 0 -2 2v12z" fill="#54d174"/><path d="m18 56v-12a2 2 0 0 0 -2-2h-2a2 2 0 0 0 -2 2v12z" fill="#e24c66"/><path d="m8 56v-8a2 2 0 0 0 -2-2h-2a2 2 0 0 0 -2 2v8z" fill="#e24c66"/><path d="m48 56v-24a2 2 0 0 0 -2-2h-2a2 2 0 0 0 -2 2v24z" fill="#f3cb4a"/><path d="m58 56v-26a2 2 0 0 0 -2-2h-2a2 2 0 0 0 -2 2v26z" fill="#f3cb4a"/><rect fill="#44657a" height="4" rx="1" width="58" x="1" y="55"/><path d="m20 34.172-5.586-5.586a2 2 0 0 0 -2.828 0l-10 10a2 2 0 0 0 0 2.828 2 2 0 0 0 2.828 0l8.586-8.586 5.586 5.586a2 2 0 0 0 2.828 0l7.586-7.584 2.59 2.58a1.974 1.974 0 0 0 2.82 0l9.59-9.58 2.59 2.58a1.974 1.974 0 0 0 2.82 0l5.59-5.59v1.18a1 1 0 0 0 1 1h2a1 1 0 0 0 1-1v-7a1 1 0 0 0 -1-1h-7a1 1 0 0 0 -1 1v2a1 1 0 0 0 1 1h1.18l-4.18 4.17-2.59-2.58a1.974 1.974 0 0 0 -2.82 0l-9.59 9.58-2.59-2.58a1.974 1.974 0 0 0 -2.82 0z" fill="#3bcde5"/><circle cx="19" cy="13" fill="#f3cb4a" r="12"/><g fill="#373737"><path d="m59 54.278v-24.278a3 3 0 0 0 -3-3h-2a3 3 0 0 0 -3 3v24h-2v-22a3 3 0 0 0 -3-3h-2a3 3 0 0 0 -3 3v22h-2v-14a3 3 0 0 0 -3-3h-2a3 3 0 0 0 -3 3v14h-2v-10a3 3 0 0 0 -3-3h-2a3 3 0 0 0 -3 3v10h-2v-10a3 3 0 0 0 -3-3h-2a3 3 0 0 0 -3 3v10h-2v-6a3 3 0 0 0 -3-3h-2a3 3 0 0 0 -3 3v6.278a1.993 1.993 0 0 0 -1 1.722v2a2 2 0 0 0 2 2h56a2 2 0 0 0 2-2v-2a1.993 1.993 0 0 0 -1-1.722zm-6-24.278a1 1 0 0 1 1-1h2a1 1 0 0 1 1 1v24h-4zm-10 2a1 1 0 0 1 1-1h2a1 1 0 0 1 1 1v22h-4zm-10 8a1 1 0 0 1 1-1h2a1 1 0 0 1 1 1v14h-4zm-10 4a1 1 0 0 1 1-1h2a1 1 0 0 1 1 1v10h-4zm-10 0a1 1 0 0 1 1-1h2a1 1 0 0 1 1 1v10h-4zm-9 3h2a1 1 0 0 1 1 1v6h-4v-6a1 1 0 0 1 1-1zm-2 11v-2h56v2z"/><path d="m58 13h-7a2 2 0 0 0 -2 2v2a2 2 0 0 0 1.02 1.743l-2.02 2.015-1.877-1.871a3.049 3.049 0 0 0 -4.239 0l-8.884 8.871-1.877-1.871a3.049 3.049 0 0 0 -4.239 0l-6.884 6.871-4.879-4.879a3.072 3.072 0 0 0 -4.242 0l-10 10a3 3 0 0 0 2.121 5.121 2.978 2.978 0 0 0 2.121-.879l7.879-7.879 4.879 4.879a3 3 0 0 0 4.242 0l6.879-6.878 1.877 1.87a3.049 3.049 0 0 0 4.239 0l8.884-8.871 1.877 1.871a3.049 3.049 0 0 0 4.239 0l4.139-4.138a2 2 0 0 0 1.745 1.025h2a2 2 0 0 0 2-2v-7a2 2 0 0 0 -2-2zm0 9h-2v-1.18a1 1 0 0 0 -1.707-.707l-5.593 5.594a.993.993 0 0 1 -1.4 0l-2.59-2.58a1 1 0 0 0 -1.413 0l-9.597 9.58a.993.993 0 0 1 -1.4-.005l-2.59-2.58a1 1 0 0 0 -1.413 0l-7.586 7.584a1 1 0 0 1 -1.414 0l-5.586-5.586a1 1 0 0 0 -1.414 0l-8.59 8.587a1.019 1.019 0 0 1 -1.414 0 1 1 0 0 1 0-1.413l10-10a1 1 0 0 1 1.414 0l5.586 5.586a1 1 0 0 0 1.414 0l7.593-7.587a.993.993 0 0 1 1.4 0l2.59 2.58a1 1 0 0 0 1.413 0l9.597-9.58a.993.993 0 0 1 1.4 0l2.59 2.58a1 1 0 0 0 1.412 0l4.18-4.17a1 1 0 0 0 -.702-1.703h-1.18v-2h7z"/><path d="m9.836 5.188a1 1 0 0 0 -1.4.228 13 13 0 1 0 2.98-2.976 1 1 0 1 0 1.168 1.623 11 11 0 1 1 -2.521 2.521 1 1 0 0 0 -.227-1.396z"/><path d="m19 18a2 2 0 0 1 -2-2 1 1 0 0 0 -2 0 4 4 0 0 0 3 3.858v1.142a1 1 0 0 0 2 0v-1.142a3.992 3.992 0 0 0 -1-7.858 2 2 0 1 1 2-2 1 1 0 0 0 2 0 4 4 0 0 0 -3-3.858v-1.142a1 1 0 0 0 -2 0v1.142a3.992 3.992 0 0 0 1 7.858 2 2 0 0 1 0 4z"/></g></svg>